<?xml version="1.0" encoding="utf-8"?>
<!-- Generator: Adobe Illustrator 22.0.1, SVG Export Plug-In . SVG Version: 6.00 Build 0)  -->
<svg version="1.1" id="Layer_1" xmlns="http://www.w3.org/2000/svg" xmlns:xlink="http://www.w3.org/1999/xlink" x="0px" y="0px"
	 viewBox="0 0 24 24" style="enable-background:new 0 0 24 24;" xml:space="preserve">
<title>Pinterest</title>
<desc>Created with Sketch.</desc>
<g id="Page-1">
	<g id="_x31_-Footer-Default-M" transform="translate(-243.000000, -301.000000)">
		<g id="Group" transform="translate(42.000000, 301.000000)">
			<g id="Pinterest" transform="translate(201.000000, 0.000000)">
				<path id="Path" d="M22,12c0-5.5-4.5-10-10-10S2,6.4,2,12c0,4.1,2.5,7.6,6,9.1c-0.1-0.7,0-1.6,0.2-2.3c0.2-0.8,1.3-5.4,1.3-5.4
					s-0.3-0.6-0.3-1.6c0-1.5,0.9-2.6,1.9-2.6c0.9,0,1.3,0.7,1.3,1.5c0,0.9-0.6,2.3-0.9,3.5c-0.3,1.1,0.5,1.9,1.6,1.9
					c1.9,0,3.2-2.4,3.2-5.3c0-2.2-1.5-3.8-4.1-3.8c-3,0-4.9,2.3-4.9,4.8c0,0.9,0.3,1.5,0.6,2C8,14,8.1,14.1,8,14.3
					c-0.1,0.2-0.2,0.6-0.2,0.8c-0.1,0.3-0.3,0.3-0.5,0.3c-1.4-0.6-2-2.1-2-3.8c0-2.8,2.4-6.2,7.1-6.2c3.8,0,6.3,2.8,6.3,5.7
					c0,3.9-2.2,6.8-5.4,6.8c-1.1,0-2.1-0.6-2.5-1.2c0,0-0.6,2.3-0.7,2.7c-0.2,0.8-0.6,1.5-1,2.1C10.1,21.8,11,22,12,22
					C17.5,22,22,17.5,22,12z"/>
			</g>
		</g>
	</g>
</g>
</svg>
