<?xml version="1.0" encoding="utf-8"?>
<!-- Generator: Adobe Illustrator 22.0.1, SVG Export Plug-In . SVG Version: 6.00 Build 0)  -->
<svg version="1.1" id="Layer_1" xmlns="http://www.w3.org/2000/svg" xmlns:xlink="http://www.w3.org/1999/xlink" x="0px" y="0px"
	 viewBox="0 0 24 24" style="enable-background:new 0 0 24 24;" xml:space="preserve">
<title>Twitter</title>
<desc>Created with Sketch.</desc>
<g id="Page-1">
	<g id="_x31_-Footer-Default-M" transform="translate(-42.000000, -301.000000)">
		<g id="Group" transform="translate(42.000000, 301.000000)">
			<g id="Twitter">
				<path id="Path" d="M22,5.9c-0.7,0.3-1.5,0.5-2.4,0.6c0.9-0.5,1.5-1.3,1.8-2.2c-0.8,0.5-1.7,0.8-2.6,1C18.1,4.5,17,4,15.8,4
					c-2.3,0-4.1,1.8-4.1,4c0,0.3,0,0.6,0.1,0.9C8.4,8.8,5.4,7.2,3.4,4.8C3,5.4,2.8,6,2.8,6.8c0,1.4,0.7,2.6,1.8,3.3
					c-0.7,0-1.3-0.2-1.9-0.5c0,0,0,0,0,0c0,2,1.4,3.6,3.3,4c-0.3,0.1-0.7,0.1-1.1,0.1c-0.3,0-0.5,0-0.8-0.1c0.5,1.6,2,2.8,3.8,2.8
					c-1.4,1.1-3.2,1.9-5.1,1.9c-0.3,0-0.7,0-1-0.1c1.8,1.1,4,1.6,6.3,1.6c7.5,0,11.7-6.1,11.7-11.5c0-0.2,0-0.3,0-0.5
					C20.8,7.4,21.4,6.7,22,5.9z"/>
			</g>
		</g>
	</g>
</g>
</svg>
